<svg xmlns="http://www.w3.org/2000/svg" xmlns:xlink="http://www.w3.org/1999/xlink" width="1920" height="1080" viewBox="0 0 1920 1080">
  <defs>
    <style>
      .cls-1 {
        clip-path: url(#clip-Home_2);
      }

      .cls-2 {
        fill: #ff8906;
      }

      .cls-3, .cls-4 {
        stroke: none;
      }

      .cls-4 {
        fill: #707070;
      }

      .cls-5 {
        fill: #0f0e17;
      }
    </style>
    <clipPath id="clip-Home_2">
      <rect width="1920" height="1080"/>
    </clipPath>
  </defs>
  <g id="Home_2" data-name="Home – 2" class="cls-1">
    <rect class="cls-5" width="1920" height="1080"/>
    <g id="Path_1" data-name="Path 1" class="cls-2" transform="matrix(-0.259, 0.966, -0.966, -0.259, 794, 806.529)">
      <path class="cls-3" d="M 819.4319458007813 907.8759765625 L 193.8823699951172 907.8759765625 L 0.5969489216804504 347.1658935546875 L 506.6572875976563 0.6059192419052124 L 1012.717651367188 347.1658935546875 L 819.4319458007813 907.8759765625 Z"/>
      <path class="cls-4" d="M 506.6572875976563 1.2120361328125 L 1.19378662109375 347.36328125 L 194.23876953125 907.3759765625 L 819.0755615234375 907.3759765625 L 1012.120788574219 347.36328125 L 506.6572875976563 1.2120361328125 M 506.6572875976563 -6.103515625e-05 L 1013.314514160156 346.9686889648438 L 819.78857421875 908.3759765625 L 193.5258178710938 908.3759765625 L 6.103515625e-05 346.9686889648438 L 506.6572875976563 -6.103515625e-05 Z"/>
    </g>
    <g id="Path_2" data-name="Path 2" class="cls-2" transform="matrix(0.643, -0.766, 0.766, 0.643, 1123.899, 33.176)">
      <path class="cls-3" d="M 819.4319458007813 907.8759765625 L 193.8823699951172 907.8759765625 L 0.5969489216804504 347.1658935546875 L 506.6572875976563 0.6059192419052124 L 1012.717651367188 347.1658935546875 L 819.4319458007813 907.8759765625 Z"/>
      <path class="cls-4" d="M 506.6572875976563 1.2120361328125 L 1.19378662109375 347.36328125 L 194.23876953125 907.3759765625 L 819.0755615234375 907.3759765625 L 1012.120788574219 347.36328125 L 506.6572875976563 1.2120361328125 M 506.6572875976563 -6.103515625e-05 L 1013.314514160156 346.9686889648438 L 819.78857421875 908.3759765625 L 193.5258178710938 908.3759765625 L 6.103515625e-05 346.9686889648438 L 506.6572875976563 -6.103515625e-05 Z"/>
    </g>
  </g>
</svg>
